<svg width="1070" height="1070" viewBox="0 0 1070 1070" fill="none" xmlns="http://www.w3.org/2000/svg">
<g filter="url(#filter0_d)">
<rect x="20" y="16" width="1030" height="1030" rx="150" fill="white"/>
<path d="M213 497C206.667 497 201.333 495.167 197 491.5C193 487.5 190.667 483 190 478L144 159.5V158C144 155 145 152.5 147 150.5C149.333 148.167 152 147 155 147H248C254 147 258.333 148 261 150C264 152 265.667 155.5 266 160.5L283 301.5L303.5 239C306.833 229.333 312.5 224.5 320.5 224.5H371.5C379.5 224.5 385.167 229.333 388.5 239L409 301L426 160.5C426.333 155.5 427.833 152 430.5 150C433.5 148 438 147 444 147H537C540 147 542.5 148.167 544.5 150.5C546.833 152.5 548 155 548 158V159.5L502 478C501.333 483 498.833 487.5 494.5 491.5C490.5 495.167 485.333 497 479 497H407.5C401.5 497 396.833 495.5 393.5 492.5C390.5 489.5 388.333 486.5 387 483.5L346 381L305 483.5C303.667 486.5 301.333 489.5 298 492.5C295 495.5 290.5 497 284.5 497H213ZM718.723 497C715.056 497 711.889 495.667 709.223 493C706.556 490.333 705.223 487.167 705.223 483.5V254.5H622.223C618.556 254.5 615.389 253.167 612.723 250.5C610.056 247.833 608.723 244.667 608.723 241V160.5C608.723 156.833 610.056 153.667 612.723 151C615.389 148.333 618.556 147 622.223 147H915.223C918.889 147 922.056 148.333 924.723 151C927.389 153.667 928.723 156.833 928.723 160.5V241C928.723 244.667 927.389 247.833 924.723 250.5C922.056 253.167 918.889 254.5 915.223 254.5H832.223V483.5C832.223 487.167 830.889 490.333 828.223 493C825.556 495.667 822.389 497 818.723 497H718.723ZM173 927C169.333 927 166.167 925.833 163.5 923.5C160.833 920.833 159.5 917.5 159.5 913.5V590.5C159.5 586.833 160.833 583.667 163.5 581C166.167 578.333 169.333 577 173 577H271C274.667 577 277.833 578.333 280.5 581C283.167 583.667 284.5 586.833 284.5 590.5V695.5H365.5V590.5C365.5 586.833 366.833 583.667 369.5 581C372.167 578.333 375.333 577 379 577H477C480.667 577 483.833 578.333 486.5 581C489.167 583.667 490.5 586.833 490.5 590.5V913.5C490.5 917.167 489.167 920.333 486.5 923C483.833 925.667 480.667 927 477 927H379C375.333 927 372.167 925.667 369.5 923C366.833 920.333 365.5 917.167 365.5 913.5V805.5H284.5V913.5C284.5 917.167 283.167 920.333 280.5 923C277.833 925.667 274.667 927 271 927H173Z" fill="#5B3400"/>
<path d="M938.316 685.402C938.316 626.085 890.231 578 830.925 578C794.921 578 763.151 595.773 743.658 622.94C724.165 595.773 692.395 578 656.402 578C597.085 578 549 626.074 549 685.402C549 693.804 550.067 701.946 551.895 709.793C566.806 802.447 669.822 900.195 743.658 927.035C817.483 900.195 920.51 802.447 935.399 709.804C937.25 701.956 938.316 693.815 938.316 685.402Z" fill="#DD582E"/>
</g>
<defs>
<filter id="filter0_d" x="0" y="0" width="1070" height="1070" filterUnits="userSpaceOnUse" color-interpolation-filters="sRGB">
<feFlood flood-opacity="0" result="BackgroundImageFix"/>
<feColorMatrix in="SourceAlpha" type="matrix" values="0 0 0 0 0 0 0 0 0 0 0 0 0 0 0 0 0 0 127 0"/>
<feOffset dy="4"/>
<feGaussianBlur stdDeviation="10"/>
<feColorMatrix type="matrix" values="0 0 0 0 0.704167 0 0 0 0 0.704167 0 0 0 0 0.704167 0 0 0 0.25 0"/>
<feBlend mode="normal" in2="BackgroundImageFix" result="effect1_dropShadow"/>
<feBlend mode="normal" in="SourceGraphic" in2="effect1_dropShadow" result="shape"/>
</filter>
</defs>
</svg>
